# Blender 3.4.1
# www.blender.org
mtllib BlockingWalls.mtl
o BlockingWallY
v 60.000000 11.880583 -1.000000
v 60.000000 -1.000000 -1.000000
v 60.000000 11.880583 1.000000
v 60.000000 -1.000000 1.000000
v -60.000000 11.880583 -1.000000
v -60.000000 -1.000000 -1.000000
v -60.000000 11.880583 1.000000
v -60.000000 -1.000000 1.000000
vn -0.0000 1.0000 -0.0000
vn -0.0000 -0.0000 1.0000
vn -1.0000 -0.0000 -0.0000
vn -0.0000 -1.0000 -0.0000
vn 1.0000 -0.0000 -0.0000
vn -0.0000 -0.0000 -1.0000
vt 0.940252 0.832938
vt 0.776101 0.720988
vt 0.940252 0.720988
vt 0.776101 0.000000
vt 0.828302 0.832938
vt 0.664151 0.720988
vt 0.940252 0.832938
vt 0.664151 0.000000
vt 0.940251 0.944888
vt 0.888050 0.720988
vt 0.828302 0.720988
vt 0.888050 0.000000
vt 0.828302 0.944888
vt 0.552201 0.720988
vt 1.000000 0.720988
vt 1.000000 0.000000
vt 0.552202 0.000000
vt 0.828302 0.832938
s 0
usemtl Material
f 5/9/1 3/5/1 1/1/1
f 3/6/2 8/17/2 4/8/2
f 7/15/3 6/12/3 8/16/3
f 2/3/4 8/18/4 6/11/4
f 1/2/5 4/8/5 2/4/5
f 5/10/6 2/4/6 6/12/6
f 5/9/1 7/13/1 3/5/1
f 3/6/2 7/14/2 8/17/2
f 7/15/3 5/10/3 6/12/3
f 2/3/4 4/7/4 8/18/4
f 1/2/5 3/6/5 4/8/5
f 5/10/6 1/2/6 2/4/6
o BlockingWall
v 1.000000 11.880583 -58.000000
v 1.000000 -1.000000 -58.000000
v 1.000000 11.880583 58.000000
v 1.000000 -1.000000 58.000000
v -1.000000 11.880583 -58.000000
v -1.000000 -1.000000 -58.000000
v -1.000000 11.880583 58.000000
v -1.000000 -1.000000 58.000000
vn -0.0000 1.0000 -0.0000
vn -0.0000 -0.0000 1.0000
vn -1.0000 -0.0000 -0.0000
vn -0.0000 -1.0000 -0.0000
vn 1.0000 -0.0000 -0.0000
vn -0.0000 -0.0000 -1.0000
vt 0.552201 0.720988
vt 0.552201 0.889084
vt 0.000000 0.889084
vt 0.552202 0.000000
vt 0.828302 0.859038
vt 0.000000 0.000000
vt 0.552201 0.859039
vt 0.414151 0.889084
vt 0.690252 0.859038
vt 0.414151 0.000000
vt 0.690252 0.720988
vt 0.138050 0.889084
vt 0.828302 0.720988
vt 0.138050 0.000000
vt 0.690252 0.859039
vt 0.276101 0.889084
vt 0.276101 0.000000
vt 0.690252 0.720988
s 0
usemtl Material
f 13/29/7 11/25/7 9/19/7
f 11/26/8 16/35/8 12/28/8
f 15/34/9 14/32/9 16/35/9
f 10/23/10 16/36/10 14/31/10
f 9/20/11 12/28/11 10/22/11
f 13/30/12 10/24/12 14/32/12
f 13/29/7 15/33/7 11/25/7
f 11/26/8 15/34/8 16/35/8
f 15/34/9 13/30/9 14/32/9
f 10/23/10 12/27/10 16/36/10
f 9/20/11 11/26/11 12/28/11
f 13/30/12 9/21/12 10/24/12
