# Blender 3.4.1
# www.blender.org
mtllib EnvironmentBlock.mtl
o EnvironmentBlock
v 1.000000 6.756537 -1.000000
v 1.000000 -1.000000 -1.000000
v 1.000000 6.756537 1.000000
v 1.000000 -1.000000 1.000000
v -1.000000 6.756537 -1.000000
v -1.000000 -1.000000 -1.000000
v -1.000000 6.756537 1.000000
v -1.000000 -1.000000 1.000000
vn -0.0000 1.0000 -0.0000
vn -0.0000 -0.0000 1.0000
vn -1.0000 -0.0000 -0.0000
vn -0.0000 -1.0000 -0.0000
vn 1.0000 -0.0000 -0.0000
vn -0.0000 -0.0000 -1.0000
vt 0.204991 0.795009
vt 0.614972 0.795009
vt 0.204991 0.795009
vt 0.614973 0.000000
vt 0.204991 1.000000
vt 0.204991 0.795009
vt 0.409982 0.795009
vt 0.204991 0.000000
vt 0.204991 1.000000
vt 0.409982 0.000000
vt 0.409982 0.795009
vt 0.204991 0.795009
vt 0.819963 0.795009
vt 0.000000 0.795009
vt 0.819963 0.000000
vt 0.204991 0.000000
vt 0.409982 1.000000
vt 0.000000 0.795009
vt 0.409982 0.795009
vt 0.409982 0.000000
vt 0.000000 0.000000
vt 0.000000 1.000000
s 0
usemtl Material
f 5/11/1 3/5/1 1/1/1
f 3/6/2 8/21/2 4/8/2
f 7/19/3 6/16/3 8/20/3
f 2/3/4 8/22/4 6/14/4
f 1/2/5 4/10/5 2/4/5
f 5/13/6 2/4/6 6/15/6
f 5/11/1 7/17/1 3/5/1
f 3/6/2 7/18/2 8/21/2
f 7/19/3 5/12/3 6/16/3
f 2/3/4 4/9/4 8/22/4
f 1/2/5 3/7/5 4/10/5
f 5/13/6 1/2/6 2/4/6
