# Blender 3.4.1
# www.blender.org
mtllib IceBolt.mtl
o IceBolt
v 0.532030 0.131512 -0.532030
v 0.532030 -0.131512 -0.532030
v 0.532030 0.131512 0.532030
v 0.532030 -0.131512 0.532030
v -0.617262 0.131512 -0.532030
v -0.617262 -0.131512 -0.532030
v -0.617262 0.131512 0.532030
v -0.617262 -0.131512 0.532030
v 0.000000 0.000000 1.937288
v 0.000000 0.000000 1.937288
v 0.000000 0.000000 1.937288
v 0.000000 0.000000 1.937288
v -1.869761 0.000000 0.000000
v -1.869761 0.000000 0.000000
v -1.869761 0.000000 0.000000
v -1.869761 0.000000 0.000000
v 0.000000 0.000000 -1.742496
v 0.000000 0.000000 -1.742496
v 0.000000 0.000000 -1.742496
v 0.000000 0.000000 -1.742496
v 1.889989 0.000000 0.000000
v 1.889989 0.000000 0.000000
v 1.889989 0.000000 0.000000
v 1.889989 0.000000 0.000000
vn -0.0000 1.0000 -0.0000
vn -0.0000 -1.0000 -0.0000
vn -0.9156 -0.0000 0.4022
vn -0.1044 -0.9945 -0.0000
vn 0.0964 -0.9953 -0.0000
vn -0.8909 -0.0000 -0.4543
vn -0.0000 -0.9956 0.0932
vn -0.0000 0.9956 0.0932
vn 0.9352 -0.0000 0.3541
vn -0.1044 0.9945 -0.0000
vn -0.3910 -0.0000 -0.9204
vn -0.3910 -0.0000 0.9204
vn -0.0000 -0.9941 -0.1080
vn -0.0000 0.9941 -0.1080
vn 0.9155 -0.0000 -0.4024
vn 0.0964 0.9953 -0.0000
vn 0.3648 -0.0000 0.9311
vn 0.3648 -0.0000 -0.9311
vt 0.625000 0.500000
vt 0.375000 0.500000
vt 0.625000 0.750000
vt 0.375000 0.750000
vt 0.625000 0.250000
vt 0.875000 0.500000
vt 0.375000 0.250000
vt 0.125000 0.500000
vt 0.875000 0.750000
vt 0.625000 0.000000
vt 0.125000 0.750000
vt 0.375000 0.000000
vt 0.375000 1.000000
vt 0.125000 0.750000
vt 0.375000 0.000000
vt 0.625000 0.000000
vt 0.625000 1.000000
vt 0.875000 0.750000
vt 0.625000 0.750000
vt 0.375000 0.750000
vt 0.125000 0.500000
vt 0.375000 0.250000
vt 0.125000 0.750000
vt 0.375000 0.000000
vt 0.875000 0.750000
vt 0.625000 0.000000
vt 0.625000 0.250000
vt 0.875000 0.500000
vt 0.375000 0.500000
vt 0.375000 0.250000
vt 0.125000 0.500000
vt 0.625000 0.500000
vt 0.875000 0.500000
vt 0.625000 0.250000
vt 0.625000 0.500000
vt 0.375000 0.500000
vt 0.625000 0.750000
vt 0.375000 0.750000
s 0
usemtl Material
f 5/6/1 3/3/1 1/1/1
f 7/10/1 9/15/1 10/16/1
f 6/8/1 14/23/1 13/21/1
f 2/2/2 8/11/2 6/8/2
f 4/4/1 22/36/1 24/38/1
f 6/7/1 20/34/1 18/30/1
f 12/20/1 10/17/1 9/13/1
f 8/11/1 12/20/1 9/14/1
f 3/3/1 10/18/1 11/19/1
f 4/4/1 11/19/1 12/20/1
f 14/24/1 16/27/1 13/22/1
f 7/9/1 16/28/1 15/25/1
f 5/5/1 13/22/1 16/27/1
f 8/12/1 15/26/1 14/24/1
f 18/30/1 19/32/1 17/29/1
f 2/2/1 18/31/1 17/29/1
f 5/6/1 19/32/1 20/33/1
f 1/1/1 17/29/1 19/32/1
f 22/36/1 23/37/1 24/38/1
f 1/1/1 23/37/1 21/35/1
f 3/3/1 24/38/1 23/37/1
f 2/2/1 21/35/1 22/36/1
f 5/6/1 7/9/1 3/3/1
f 7/10/3 8/12/3 9/15/3
f 6/8/4 8/11/4 14/23/4
f 2/2/2 4/4/2 8/11/2
f 4/4/5 2/2/5 22/36/5
f 6/7/6 5/5/6 20/34/6
f 12/20/1 11/19/1 10/17/1
f 8/11/7 4/4/7 12/20/7
f 3/3/8 7/9/8 10/18/8
f 4/4/9 3/3/9 11/19/9
f 14/24/1 15/26/1 16/27/1
f 7/9/10 5/6/10 16/28/10
f 5/5/11 6/7/11 13/22/11
f 8/12/12 7/10/12 15/26/12
f 18/30/1 20/34/1 19/32/1
f 2/2/13 6/8/13 18/31/13
f 5/6/14 1/1/14 19/32/14
f 1/1/15 2/2/15 17/29/15
f 22/36/1 21/35/1 23/37/1
f 1/1/16 3/3/16 23/37/16
f 3/3/17 4/4/17 24/38/17
f 2/2/18 1/1/18 21/35/18
